<svg height="512" viewBox="0 0 24 24" width="512" xmlns="http://www.w3.org/2000/svg"><g id="Flat_Color" data-name="Flat Color"><path d="m5 6a2 2 0 0 0 -2 2.12l.64 10.13a4 4 0 0 0 4 3.75h8.74a4 4 0 0 0 4-3.75l.62-10.13a2 2 0 0 0 -2-2.12z" fill="#20bf55"/><path d="m16 9a1 1 0 0 1 -1-1v-1a3 3 0 0 0 -6 0v1a1 1 0 0 1 -2 0v-1a5 5 0 0 1 10 0v1a1 1 0 0 1 -1 1z" fill="#109138"/><path d="m11.24 17.77a1 1 0 0 1 -.71-.28l-2.28-2.24a1 1 0 0 1 1.41-1.43l1.58 1.55 4.1-4a1 1 0 1 1 1.41 1.43l-4.81 4.73a1 1 0 0 1 -.7.24z" fill="#edebea"/></g></svg>